<svg width="45" height="45" viewBox="0 0 45 45" fill="none" xmlns="http://www.w3.org/2000/svg">
<g filter="url(#filter0_d_305_16544)">
<path d="M45 22.5C45 10.0736 34.9264 0 22.5 0C10.0736 0 0 10.0736 0 22.5C0 34.9264 10.0736 45 22.5 45C34.9264 45 45 34.9264 45 22.5Z" fill="url(#paint0_linear_305_16544)"/>
<path opacity="0.1" d="M39.434 7.69758C36.1537 13.7193 31.5146 19.9305 25.7178 25.7272C19.9211 31.5239 13.7099 36.1542 7.69712 39.4344C7.32014 39.1068 6.95403 38.7653 6.59876 38.4101C4.45136 36.3344 2.7387 33.8519 1.56065 31.1075C0.382587 28.363 -0.237292 25.4115 -0.262848 22.4249C-0.288404 19.4384 0.280876 16.4767 1.4118 13.7125C2.54272 10.9483 4.21264 8.43689 6.32421 6.32474C8.43577 4.21259 10.9467 2.54196 13.7106 1.41027C16.4745 0.278577 19.4361 -0.291529 22.4226 -0.266807C25.4091 -0.242085 28.3608 0.37697 31.1056 1.55426C33.8504 2.73155 36.3333 4.44352 38.4096 6.59034C38.7649 6.9456 39.1063 7.31468 39.434 7.69758Z" fill="white"/>
<path d="M27.8273 10.6582H17.1694C15.442 10.6582 13.7854 11.3444 12.5639 12.5659C11.3425 13.7873 10.6562 15.444 10.6562 17.1714V27.8293C10.6562 29.5567 11.3425 31.2133 12.5639 32.4348C13.7854 33.6562 15.442 34.3424 17.1694 34.3424H27.8273C29.5547 34.3424 31.2113 33.6562 32.4328 32.4348C33.6543 31.2133 34.3405 29.5567 34.3405 27.8293V17.1714C34.3405 15.444 33.6543 13.7873 32.4328 12.5659C31.2113 11.3444 29.5547 10.6582 27.8273 10.6582ZM32.2681 26.8937C32.2681 28.3196 31.7017 29.6871 30.6934 30.6954C29.6852 31.7036 28.3177 32.27 26.8918 32.27H18.1049C16.679 32.27 15.3116 31.7036 14.3033 30.6954C13.295 29.6871 12.7286 28.3196 12.7286 26.8937V18.1069C12.7286 16.681 13.295 15.3135 14.3033 14.3053C15.3116 13.297 16.679 12.7306 18.1049 12.7306H26.8918C28.3177 12.7306 29.6852 13.297 30.6934 14.3053C31.7017 15.3135 32.2681 16.681 32.2681 18.1069V26.8937Z" fill="white"/>
<path d="M26.818 18.2253L26.7617 18.169L26.7143 18.1216C25.595 17.0061 24.0789 16.3801 22.4986 16.3809C21.7005 16.3863 20.9114 16.5489 20.1762 16.8594C19.441 17.1699 18.7742 17.6222 18.2139 18.1905C17.6536 18.7588 17.2108 19.4319 16.9107 20.1714C16.6106 20.9109 16.4592 21.7022 16.465 22.5003C16.4638 24.1198 17.1022 25.6743 18.2413 26.8256C18.7993 27.3903 19.4642 27.8383 20.1971 28.1433C20.9301 28.4483 21.7165 28.6042 22.5104 28.6019C23.7012 28.5769 24.8591 28.206 25.8427 27.5343C26.8263 26.8626 27.5932 25.9192 28.0499 24.8191C28.5066 23.719 28.6333 22.5098 28.4145 21.339C28.1958 20.1681 27.641 19.0863 26.818 18.2253ZM22.4986 26.5147C21.7023 26.5259 20.9207 26.3 20.2531 25.8657C19.5856 25.4314 19.0623 24.8084 18.7498 24.0759C18.4373 23.3434 18.3497 22.5345 18.4982 21.7521C18.6467 20.9697 19.0246 20.2492 19.5837 19.6821C20.1428 19.115 20.858 18.7271 21.6382 18.5675C22.4184 18.408 23.2285 18.4842 23.9653 18.7863C24.7021 19.0884 25.3325 19.6029 25.7761 20.2642C26.2198 20.9256 26.4567 21.7039 26.4568 22.5003C26.4607 23.0238 26.3614 23.543 26.1645 24.0282C25.9677 24.5133 25.6772 24.9549 25.3096 25.3277C24.942 25.7006 24.5045 25.9973 24.0222 26.201C23.5398 26.4046 23.0221 26.5113 22.4986 26.5147Z" fill="white"/>
<path d="M30.3227 16.0987C30.3243 16.2886 30.2884 16.477 30.217 16.653C30.1457 16.8291 30.0404 16.9893 29.907 17.1246C29.7737 17.2598 29.615 17.3674 29.44 17.4413C29.265 17.5151 29.0772 17.5538 28.8872 17.5549C28.6989 17.5548 28.5125 17.5174 28.3387 17.4447C28.165 17.3721 28.0073 17.2657 27.875 17.1317C27.6745 16.9282 27.5381 16.6704 27.4827 16.3902C27.4274 16.1099 27.4555 15.8196 27.5636 15.5552C27.6717 15.2908 27.855 15.064 28.0908 14.9028C28.3266 14.7416 28.6046 14.6531 28.8902 14.6484C29.2245 14.6484 29.5482 14.7657 29.8048 14.9799L29.8344 15.0095C29.8821 15.0484 29.9257 15.092 29.9646 15.1398L29.9971 15.1753C30.209 15.4363 30.324 15.7625 30.3227 16.0987Z" fill="white"/>
</g>
<defs>
<filter id="filter0_d_305_16544" x="-4.26367" y="-0.267578" width="53.2637" height="53.2676" filterUnits="userSpaceOnUse" color-interpolation-filters="sRGB">
<feFlood flood-opacity="0" result="BackgroundImageFix"/>
<feColorMatrix in="SourceAlpha" type="matrix" values="0 0 0 0 0 0 0 0 0 0 0 0 0 0 0 0 0 0 127 0" result="hardAlpha"/>
<feOffset dy="4"/>
<feGaussianBlur stdDeviation="2"/>
<feComposite in2="hardAlpha" operator="out"/>
<feColorMatrix type="matrix" values="0 0 0 0 0 0 0 0 0 0 0 0 0 0 0 0 0 0 0.25 0"/>
<feBlend mode="normal" in2="BackgroundImageFix" result="effect1_dropShadow_305_16544"/>
<feBlend mode="normal" in="SourceGraphic" in2="effect1_dropShadow_305_16544" result="shape"/>
</filter>
<linearGradient id="paint0_linear_305_16544" x1="6.59013" y1="6.59013" x2="38.4099" y2="38.4099" gradientUnits="userSpaceOnUse">
<stop stop-color="#FAE100"/>
<stop offset="0.15" stop-color="#FCB720"/>
<stop offset="0.3" stop-color="#FF7950"/>
<stop offset="0.5" stop-color="#FF1C74"/>
<stop offset="1" stop-color="#6C1CD1"/>
</linearGradient>
</defs>
</svg>
