<svg width="78" height="18" viewBox="0 0 78 18" fill="none" xmlns="http://www.w3.org/2000/svg">
<path d="M0 11.496H0.853634V11.931C0.853634 13.0238 1.20551 13.4694 2.14386 13.4694H4.10526C5.4802 13.4694 5.91679 13.3845 5.91679 12.0689V11.9946C5.91679 11.1459 5.76692 10.6896 4.67218 10.6896H1.84411C0.553885 10.679 0.0781955 9.99999 0.0781955 8.32364V7.81436C0.0781955 6.37142 0.57995 5.57568 2.83459 5.57568H4.23559C6.30125 5.57568 6.58797 6.54118 6.58797 7.79314V8.25998H5.73434V8.1751C5.73434 6.81704 5.18045 6.78521 4.18346 6.78521H2.58697C1.27719 6.79582 0.990476 6.9974 0.990476 7.99473V8.32364C0.990476 9.05572 1.14035 9.4695 2.09825 9.4695H4.50927C5.88421 9.4695 6.82256 9.69231 6.82256 12.0795V12.1114C6.82907 14.5941 5.42155 14.6789 4.30727 14.6789H2.61955C1.27068 14.6789 0 14.6789 0 12.0159V11.496Z" fill="white"/>
<path d="M8.06641 5.70287H8.92004V7.10337H8.93959C9.20676 6.03178 9.94961 5.56494 10.7576 5.56494H12.4975C13.7942 5.56494 15.0063 6.24397 15.0063 9.289V10.8487C15.0063 13.7027 14.2308 14.6788 12.3476 14.6788H10.6078C9.63683 14.6788 9.20676 14.2862 9.01127 13.3738H8.99172V17.6284H8.06641V5.70287ZM14.0875 9.31022C14.0875 7.59142 13.7486 6.78508 12.4584 6.78508H10.6403C9.43483 6.78508 8.97869 7.80362 8.97869 9.33144V11.0184C8.97869 13.1298 9.78019 13.4799 10.7576 13.4799H12.3867C13.4554 13.4799 14.0875 13.0979 14.0875 11.0502V9.31022Z" fill="white"/>
<path d="M26.6055 5.70287H27.4591V6.98666H27.4787C27.8175 5.8408 28.5147 5.56494 29.1403 5.56494H30.0005C31.7142 5.56494 32.2746 6.46678 32.2746 8.63119V9.69218H31.4275V9.31022C31.4275 7.1352 31.1473 6.78508 29.5248 6.78508H28.9578C27.9869 6.78508 27.5243 7.79301 27.5243 8.92827V14.5409H26.612L26.6055 5.70287Z" fill="white"/>
<path d="M34.1319 6.92307H32.9395V5.70293H34.1319V3.61279H35.0442V5.70293H38.6803V6.91246H35.0507V11.3156C35.0507 12.9601 35.4026 13.4694 36.3996 13.4694H36.6863C37.8984 13.4694 38.0938 13.0556 38.0938 11.1988V10.541H38.8367V11.5065C38.8367 13.2784 38.7324 14.6789 36.7515 14.6789H36.2497C34.5294 14.6789 34.1319 13.3314 34.1319 11.8885V6.92307Z" fill="white"/>
<path d="M40.0039 5.70323H41.9197V7.37958H41.9392C42.1738 5.97908 43.0014 5.55469 43.9267 5.55469C45.4189 5.55469 45.9989 6.59445 45.9989 9.04533C45.9989 9.26814 45.9859 9.51216 45.9793 9.83046H44.2134C44.2134 8.70582 44.0505 8.16471 43.236 8.16471C42.5322 8.16471 42.0435 8.59972 42.0435 9.65009V14.5412H40.0039V5.70323Z" fill="white"/>
<path d="M46.7617 11.4428C46.7617 9.04497 47.7848 8.89644 49.7657 8.89644C50.8865 8.89644 51.5056 8.94949 51.8966 9.6073V8.82217C51.8966 7.95216 51.7402 7.64447 50.9387 7.64447H49.7331C49.1402 7.64447 48.9707 7.72935 48.9447 8.35533H46.9637C46.9637 5.95751 47.687 5.56494 49.4138 5.56494H51.7858C53.1868 5.56494 53.9362 6.65776 53.9362 8.73729V14.5409H52.0008V13.5436C51.4339 14.4984 51.2254 14.6894 50.2023 14.6894H48.8078C47.5632 14.7106 46.7682 14.2544 46.7682 12.1749V11.4428H46.7617ZM50.4043 12.5993C51.8118 12.5993 51.9357 12.2492 51.9357 11.6656C51.9357 11.0078 51.8184 10.7638 50.691 10.7638H49.7918C48.9316 10.7638 48.7492 11.0715 48.7492 11.8035C48.7492 12.3765 49.0294 12.5993 49.8179 12.5993H50.4043Z" fill="white"/>
<path d="M54.9648 9.33141C54.9648 7.08212 55.2841 5.57552 57.8711 5.57552H58.4771C59.3177 5.57552 60.1779 5.95748 60.3082 7.34737H60.3278V2H62.3673V14.5409H60.4516V12.9069H60.432C60.2105 13.9998 59.6957 14.6788 58.4641 14.6788H57.8711C55.2841 14.6788 54.9648 13.1722 54.9648 10.9229V9.33141ZM56.9458 10.6364C56.9458 11.6231 57.0435 12.1749 58.0145 12.1749H59.22C60.0215 12.1749 60.4516 11.8778 60.4516 10.5515V9.68154C60.4516 8.3447 60.028 8.05823 59.22 8.05823H58.0145C57.037 8.05823 56.9458 8.60994 56.9458 9.59666V10.6364Z" fill="white"/>
<path d="M63.5078 11.4428C63.5078 9.04497 64.5309 8.89644 66.5118 8.89644C67.6261 8.89644 68.2517 8.94949 68.6427 9.6073V8.82217C68.6427 7.95216 68.4863 7.64447 67.6848 7.64447H66.4792C65.8797 7.64447 65.7103 7.72935 65.6908 8.35533H63.7163C63.7163 5.95751 64.4396 5.56494 66.1665 5.56494H68.5384C69.9459 5.56494 70.6888 6.65776 70.6888 8.73729V14.5409H68.7534V13.5436C68.193 14.4984 67.978 14.6894 66.9549 14.6894H65.5539C64.3093 14.7106 63.5078 14.2544 63.5078 12.1749V11.4428ZM67.1504 12.5993C68.5514 12.5993 68.6817 12.2492 68.6817 11.6656C68.6817 11.0078 68.5645 10.7638 67.4371 10.7638H66.5314C65.6712 10.7638 65.4888 11.0715 65.4888 11.8035C65.4888 12.3765 65.769 12.5993 66.5574 12.5993H67.1504Z" fill="white"/>
<path d="M71.9863 5.70323H73.9021V7.37958H73.9217C74.1563 5.97908 74.9838 5.55469 75.9091 5.55469C77.4014 5.55469 77.9878 6.59445 77.9878 9.04533C77.9878 9.26814 77.9748 9.51216 77.9683 9.83046H76.2024C76.2024 8.70582 76.046 8.16471 75.2249 8.16471C74.5212 8.16471 74.0324 8.59972 74.0324 9.65009V14.5412H71.9863V5.70323Z" fill="white"/>
<path d="M21.6798 6.76416H19.8096C18.7409 6.76416 17.998 7.15672 17.998 9.22565V10.9975C17.998 13.0558 18.7409 13.459 19.8096 13.459H21.6798C22.7419 13.459 23.4913 13.0558 23.4913 10.9975V9.22565C23.4848 7.15672 22.7419 6.76416 21.6798 6.76416Z" fill="white"/>
<path d="M21.5811 4.28125H19.9065C17.6909 4.28125 16.0684 5.15126 16.0684 8.86471V11.3474C16.0684 15.0715 17.6909 15.9203 19.9065 15.9203H21.5811C23.7967 15.9203 25.4192 15.0503 25.4192 11.3474V8.86471C25.4192 5.14065 23.8032 4.28125 21.5811 4.28125ZM24.4027 11.0822C24.4027 13.9893 23.1385 14.6683 21.3987 14.6683H20.0889C18.3491 14.6683 17.0849 13.9893 17.0849 11.0822V9.14057C17.0849 6.23346 18.3556 5.55443 20.0889 5.55443H21.3987C23.1385 5.55443 24.4027 6.23346 24.4027 9.14057V11.0822Z" fill="white"/>
</svg>
